%TF.GenerationSoftware,KiCad,Pcbnew,8.0.0*%
%TF.CreationDate,2024-07-03T13:45:23+02:00*%
%TF.ProjectId,KIBO V1,4b49424f-2056-4312-9e6b-696361645f70,rev?*%
%TF.SameCoordinates,Original*%
%TF.FileFunction,Soldermask,Bot*%
%TF.FilePolarity,Negative*%
%FSLAX46Y46*%
G04 Gerber Fmt 4.6, Leading zero omitted, Abs format (unit mm)*
G04 Created by KiCad (PCBNEW 8.0.0) date 2024-07-03 13:45:23*
%MOMM*%
%LPD*%
G01*
G04 APERTURE LIST*
G04 Aperture macros list*
%AMRoundRect*
0 Rectangle with rounded corners*
0 $1 Rounding radius*
0 $2 $3 $4 $5 $6 $7 $8 $9 X,Y pos of 4 corners*
0 Add a 4 corners polygon primitive as box body*
4,1,4,$2,$3,$4,$5,$6,$7,$8,$9,$2,$3,0*
0 Add four circle primitives for the rounded corners*
1,1,$1+$1,$2,$3*
1,1,$1+$1,$4,$5*
1,1,$1+$1,$6,$7*
1,1,$1+$1,$8,$9*
0 Add four rect primitives between the rounded corners*
20,1,$1+$1,$2,$3,$4,$5,0*
20,1,$1+$1,$4,$5,$6,$7,0*
20,1,$1+$1,$6,$7,$8,$9,0*
20,1,$1+$1,$8,$9,$2,$3,0*%
G04 Aperture macros list end*
%ADD10C,1.600000*%
%ADD11O,1.600000X1.600000*%
%ADD12R,1.700000X1.700000*%
%ADD13O,1.700000X1.700000*%
%ADD14R,1.905000X2.000000*%
%ADD15O,1.905000X2.000000*%
%ADD16C,3.200000*%
%ADD17R,2.200000X2.200000*%
%ADD18O,2.200000X2.200000*%
%ADD19R,2.000000X1.905000*%
%ADD20O,2.000000X1.905000*%
%ADD21O,1.982000X3.760000*%
%ADD22RoundRect,0.249999X1.025001X-1.025001X1.025001X1.025001X-1.025001X1.025001X-1.025001X-1.025001X0*%
%ADD23C,2.550000*%
%ADD24RoundRect,0.249999X-1.025001X1.025001X-1.025001X-1.025001X1.025001X-1.025001X1.025001X1.025001X0*%
%ADD25RoundRect,0.102000X-0.765000X-0.765000X0.765000X-0.765000X0.765000X0.765000X-0.765000X0.765000X0*%
%ADD26C,1.734000*%
%ADD27C,2.000000*%
%ADD28RoundRect,0.250000X-0.600000X-0.725000X0.600000X-0.725000X0.600000X0.725000X-0.600000X0.725000X0*%
%ADD29O,1.700000X1.950000*%
G04 APERTURE END LIST*
D10*
%TO.C,R1*%
X139310000Y-78500000D03*
D11*
X131690000Y-78500000D03*
%TD*%
D12*
%TO.C,mC2*%
X167500000Y-108150000D03*
D13*
X167500000Y-110690000D03*
X167500000Y-113230000D03*
X167500000Y-115770000D03*
X167500000Y-118310000D03*
X167500000Y-120850000D03*
%TD*%
D14*
%TO.C,Q1*%
X156920000Y-64000000D03*
D15*
X159460000Y-64000000D03*
X162000000Y-64000000D03*
%TD*%
D12*
%TO.C,uS2*%
X143500000Y-122960000D03*
D13*
X143500000Y-125500000D03*
X143500000Y-128040000D03*
%TD*%
D16*
%TO.C,M.hole3*%
X166500000Y-126500000D03*
%TD*%
D12*
%TO.C,PWM1*%
X133000000Y-89925000D03*
D13*
X133000000Y-92465000D03*
X133000000Y-95005000D03*
X133000000Y-97545000D03*
X133000000Y-100085000D03*
%TD*%
D17*
%TO.C,D1*%
X167500000Y-69080000D03*
D18*
X167500000Y-58920000D03*
%TD*%
D12*
%TO.C,uS4*%
X153500000Y-122920000D03*
D13*
X153500000Y-125460000D03*
X153500000Y-128000000D03*
%TD*%
D19*
%TO.C,Q4*%
X168000000Y-101080000D03*
D20*
X168000000Y-98540000D03*
X168000000Y-96000000D03*
%TD*%
D13*
%TO.C,MP1584EN1*%
X133000000Y-61000000D03*
X133000000Y-63540000D03*
X133000000Y-72300000D03*
X133000000Y-74840000D03*
X152000000Y-61000000D03*
X152000000Y-63540000D03*
X152000000Y-72300000D03*
X152000000Y-74840000D03*
%TD*%
D21*
%TO.C,GY-521*%
X144332500Y-85602500D03*
X157032500Y-85602500D03*
X141792500Y-85602500D03*
X154492500Y-85602500D03*
X151952500Y-85602500D03*
X159572500Y-85602500D03*
X146872500Y-85602500D03*
X149412500Y-85602500D03*
%TD*%
D14*
%TO.C,Q3*%
X156920000Y-77000000D03*
D15*
X159460000Y-77000000D03*
X162000000Y-77000000D03*
%TD*%
D16*
%TO.C,M.hole2*%
X166500000Y-53500000D03*
%TD*%
D22*
%TO.C,MF1*%
X167500000Y-77400000D03*
D23*
X167500000Y-72600000D03*
%TD*%
D12*
%TO.C,uS1*%
X138500000Y-122920000D03*
D13*
X138500000Y-125460000D03*
X138500000Y-128000000D03*
%TD*%
D12*
%TO.C,mC1*%
X163500000Y-108150000D03*
D13*
X163500000Y-110690000D03*
X163500000Y-113230000D03*
X163500000Y-115770000D03*
X163500000Y-118310000D03*
X163500000Y-120850000D03*
%TD*%
D24*
%TO.C,SWP1*%
X110500000Y-109100000D03*
D23*
X110500000Y-113900000D03*
%TD*%
D14*
%TO.C,Q2*%
X156920000Y-70500000D03*
D15*
X159460000Y-70500000D03*
X162000000Y-70500000D03*
%TD*%
D16*
%TO.C,M.hole4*%
X103500000Y-126500000D03*
%TD*%
D10*
%TO.C,R7*%
X127810000Y-109000000D03*
D11*
X120190000Y-109000000D03*
%TD*%
D12*
%TO.C,uSR1*%
X137500000Y-97580000D03*
D13*
X137500000Y-95040000D03*
X137500000Y-92500000D03*
X137500000Y-89960000D03*
%TD*%
D10*
%TO.C,R10*%
X132000000Y-113690000D03*
D11*
X132000000Y-121310000D03*
%TD*%
D12*
%TO.C,DM1*%
X161300000Y-81000000D03*
D13*
X158760000Y-81000000D03*
X156220000Y-81000000D03*
X153680000Y-81000000D03*
%TD*%
D10*
%TO.C,R6*%
X121000000Y-113000000D03*
D11*
X121000000Y-120620000D03*
%TD*%
D25*
%TO.C,ESP32*%
X103572500Y-58800000D03*
D26*
X103572500Y-61340000D03*
X103572500Y-63880000D03*
X103572500Y-66420000D03*
X103572500Y-68960000D03*
X103572500Y-71500000D03*
X103572500Y-74040000D03*
X103572500Y-76580000D03*
X103572500Y-79120000D03*
X103572500Y-81660000D03*
X103572500Y-84200000D03*
X103572500Y-86740000D03*
X103572500Y-89280000D03*
X103572500Y-91820000D03*
X103572500Y-94360000D03*
X103572500Y-96900000D03*
X103572500Y-99440000D03*
X103572500Y-101980000D03*
X103572500Y-104520000D03*
X128972500Y-104520000D03*
X128972500Y-101980000D03*
X128972500Y-99440000D03*
X128972500Y-96900000D03*
X128972500Y-94360000D03*
X128972500Y-91820000D03*
X128972500Y-89280000D03*
X128972500Y-86740000D03*
X128972500Y-84200000D03*
X128972500Y-81660000D03*
X128972500Y-79120000D03*
X128972500Y-76580000D03*
X128972500Y-74040000D03*
X128972500Y-71500000D03*
X128972500Y-68960000D03*
X128972500Y-66420000D03*
X128972500Y-63880000D03*
X128972500Y-61340000D03*
X128972500Y-58800000D03*
%TD*%
D13*
%TO.C,MCP23017*%
X137000000Y-101180000D03*
X139540000Y-101180000D03*
X142080000Y-101180000D03*
X144620000Y-101180000D03*
X147160000Y-101180000D03*
X149700000Y-101180000D03*
X152240000Y-101180000D03*
X154780000Y-101180000D03*
X157320000Y-101180000D03*
X159860000Y-101180000D03*
X137000000Y-116640000D03*
X137000000Y-119180000D03*
X139540000Y-116640000D03*
X139540000Y-119180000D03*
X142080000Y-116640000D03*
X142080000Y-119180000D03*
X144620000Y-116640000D03*
X144620000Y-119180000D03*
X147160000Y-116640000D03*
X147160000Y-119180000D03*
X149700000Y-116640000D03*
X149700000Y-119180000D03*
X152240000Y-116640000D03*
X152240000Y-119180000D03*
X154780000Y-116640000D03*
X154780000Y-119180000D03*
X157320000Y-116640000D03*
X157320000Y-119180000D03*
X159860000Y-119180000D03*
X159860000Y-116640000D03*
%TD*%
D12*
%TO.C,uS3*%
X148500000Y-122920000D03*
D13*
X148500000Y-125460000D03*
X148500000Y-128000000D03*
%TD*%
D12*
%TO.C,ESP32c1*%
X110500000Y-117725000D03*
D13*
X110500000Y-120265000D03*
%TD*%
D10*
%TO.C,R9*%
X115500000Y-120620000D03*
D11*
X115500000Y-113000000D03*
%TD*%
D27*
%TO.C,SWC1*%
X133750000Y-52750000D03*
X140250000Y-52750000D03*
X133750000Y-57250000D03*
X140250000Y-57250000D03*
%TD*%
D16*
%TO.C,M.hole1*%
X103500000Y-53500000D03*
%TD*%
D27*
%TO.C,SWC3*%
X153750000Y-52750000D03*
X160250000Y-52750000D03*
X153750000Y-57250000D03*
X160250000Y-57250000D03*
%TD*%
D10*
%TO.C,R11*%
X132000000Y-103500000D03*
D11*
X132000000Y-111120000D03*
%TD*%
D10*
%TO.C,R4*%
X163810000Y-91810000D03*
D11*
X163810000Y-84190000D03*
%TD*%
D28*
%TO.C,J1*%
X125500000Y-125700000D03*
D29*
X128000000Y-125700000D03*
X130500000Y-125700000D03*
X133000000Y-125700000D03*
%TD*%
D10*
%TO.C,R8*%
X126500000Y-113000000D03*
D11*
X126500000Y-120620000D03*
%TD*%
D10*
%TO.C,R5*%
X163000000Y-94690000D03*
D11*
X163000000Y-102310000D03*
%TD*%
D27*
%TO.C,SWC2*%
X143750000Y-52750000D03*
X150250000Y-52750000D03*
X143750000Y-57250000D03*
X150250000Y-57250000D03*
%TD*%
D10*
%TO.C,R2*%
X142190000Y-78500000D03*
D11*
X149810000Y-78500000D03*
%TD*%
D10*
%TO.C,R3*%
X139310000Y-83500000D03*
D11*
X131690000Y-83500000D03*
%TD*%
D12*
%TO.C,D3*%
X167500000Y-81420000D03*
D13*
X167500000Y-83960000D03*
X167500000Y-86500000D03*
X167500000Y-89040000D03*
%TD*%
M02*
