M48
; DRILL file {KiCad 8.0.0} date 2024-07-03T13:45:40+0200
; FORMAT={-:-/ absolute / inch / decimal}
; #@! TF.CreationDate,2024-07-03T13:45:40+02:00
; #@! TF.GenerationSoftware,Kicad,Pcbnew,8.0.0
; #@! TF.FileFunction,Plated,1,2,PTH
FMAT,2
INCH
; #@! TA.AperFunction,Plated,PTH,ViaDrill
T1C0.0118
; #@! TA.AperFunction,Plated,PTH,ComponentDrill
T2C0.0315
; #@! TA.AperFunction,Plated,PTH,ComponentDrill
T3C0.0374
; #@! TA.AperFunction,Plated,PTH,ComponentDrill
T4C0.0394
; #@! TA.AperFunction,Plated,PTH,ComponentDrill
T5C0.0402
; #@! TA.AperFunction,Plated,PTH,ComponentDrill
T6C0.0433
; #@! TA.AperFunction,Plated,PTH,ComponentDrill
T7C0.0610
%
G90
G05
T1
X4.151Y-3.3555
X4.1654Y-3.1732
X4.1811Y-4.8583
X4.2756Y-3.0157
X4.3858Y-2.8504
X4.4547Y-4.3619
X4.5039Y-4.2913
X4.5748Y-2.1417
X4.5748Y-2.622
X4.6143Y-2.8904
X4.6693Y-4.0079
X4.6693Y-4.5512
X4.8346Y-4.8346
X4.8583Y-3.5433
X4.8661Y-4.7008
X4.9291Y-4.1024
X4.9606Y-3.4488
X4.9685Y-3.8268
X4.9764Y-2.4016
X4.9764Y-2.7402
X4.9764Y-3.0236
X4.9909Y-3.0755
X4.9921Y-3.9606
X5.1575Y-2.4094
X5.2362Y-3.3228
X5.2487Y-3.4359
X5.2677Y-2.6142
X5.2913Y-3.378
X5.2913Y-4.7795
X5.3228Y-4.8425
X5.3465Y-5.0787
X5.378Y-4.0709
X5.378Y-4.2205
X5.4252Y-3.2598
X5.4646Y-2.748
X5.4834Y-3.3408
X5.4877Y-3.1714
X5.4961Y-4.1811
X5.5276Y-4.0709
X5.5433Y-4.7402
X5.5512Y-3.2441
X5.5512Y-4.4724
X5.5941Y-4.1193
X5.6063Y-2.4331
X5.7323Y-3.2913
X5.7323Y-4.2205
X5.7428Y-4.5045
X5.748Y-4.9606
X5.7769Y-3.2157
X5.7874Y-2.9449
X5.8449Y-4.4605
X5.8819Y-2.7874
X5.8831Y-4.7796
X5.9449Y-4.9528
X6.1102Y-2.5984
X6.1102Y-3.8583
X6.1417Y-2.3465
X6.1496Y-2.874
X6.2126Y-3.8583
X6.2362Y-3.5433
X6.2677Y-4.0472
X6.2677Y-4.2756
X6.2901Y-3.664
X6.2992Y-3.1102
X6.3228Y-3.685
X6.3307Y-3.5748
X6.3386Y-2.8661
X6.3386Y-3.7165
X6.378Y-3.2756
X6.3937Y-4.8504
X6.4173Y-2.2677
X6.4252Y-3.6693
X6.4803Y-3.3622
X6.5039Y-2.5118
X6.5118Y-3.8583
X6.5433Y-3.6457
T2
X4.5472Y-4.4488
X4.5472Y-4.7488
X4.7319Y-4.2913
X4.7638Y-4.4488
X4.7638Y-4.7488
X4.9803Y-4.4488
X4.9803Y-4.7488
X5.0319Y-4.2913
X5.1846Y-3.0906
X5.1846Y-3.2874
X5.1969Y-4.0748
X5.1969Y-4.3748
X5.1969Y-4.476
X5.1969Y-4.776
X5.4846Y-3.0906
X5.4846Y-3.2874
X5.5824Y-3.3702
X5.598Y-3.0906
X5.6824Y-3.3702
X5.7824Y-3.3702
X5.8824Y-3.3702
X5.898Y-3.0906
X5.9824Y-3.3702
X6.0824Y-3.3702
X6.1824Y-3.3702
X6.2824Y-3.3702
X6.4173Y-3.728
X6.4173Y-4.028
X6.4492Y-3.3146
X6.4492Y-3.6146
T3
X4.9409Y-4.9488
X5.0394Y-4.9488
X5.1378Y-4.9488
X5.2362Y-4.9488
T4
X4.3504Y-4.6348
X4.3504Y-4.7348
X5.2362Y-2.4016
X5.2362Y-2.5016
X5.2362Y-2.8465
X5.2362Y-2.9465
X5.2362Y-3.5404
X5.2362Y-3.6404
X5.2362Y-3.7404
X5.2362Y-3.8404
X5.2362Y-3.9404
X5.3937Y-3.9835
X5.3937Y-4.5921
X5.3937Y-4.6921
X5.4134Y-3.5417
X5.4134Y-3.6417
X5.4134Y-3.7417
X5.4134Y-3.8417
X5.4528Y-4.8394
X5.4528Y-4.9394
X5.4528Y-5.0394
X5.4937Y-3.9835
X5.4937Y-4.5921
X5.4937Y-4.6921
X5.5937Y-3.9835
X5.5937Y-4.5921
X5.5937Y-4.6921
X5.6496Y-4.8409
X5.6496Y-4.9409
X5.6496Y-5.0409
X5.6937Y-3.9835
X5.6937Y-4.5921
X5.6937Y-4.6921
X5.7937Y-3.9835
X5.7937Y-4.5921
X5.7937Y-4.6921
X5.8465Y-4.8394
X5.8465Y-4.9394
X5.8465Y-5.0394
X5.8937Y-3.9835
X5.8937Y-4.5921
X5.8937Y-4.6921
X5.9843Y-2.4016
X5.9843Y-2.5016
X5.9843Y-2.8465
X5.9843Y-2.9465
X5.9937Y-3.9835
X5.9937Y-4.5921
X5.9937Y-4.6921
X6.0433Y-4.8394
X6.0433Y-4.9394
X6.0433Y-5.0394
X6.0504Y-3.189
X6.0937Y-3.9835
X6.0937Y-4.5921
X6.0937Y-4.6921
X6.1504Y-3.189
X6.1937Y-3.9835
X6.1937Y-4.5921
X6.1937Y-4.6921
X6.2504Y-3.189
X6.2937Y-3.9835
X6.2937Y-4.5921
X6.2937Y-4.6921
X6.3504Y-3.189
X6.437Y-4.2579
X6.437Y-4.3579
X6.437Y-4.4579
X6.437Y-4.5579
X6.437Y-4.6579
X6.437Y-4.7579
X6.5945Y-3.2055
X6.5945Y-3.3055
X6.5945Y-3.4055
X6.5945Y-3.5055
X6.5945Y-4.2579
X6.5945Y-4.3579
X6.5945Y-4.4579
X6.5945Y-4.5579
X6.5945Y-4.6579
X6.5945Y-4.7579
T5
X4.0777Y-2.315
X4.0777Y-2.415
X4.0777Y-2.515
X4.0777Y-2.615
X4.0777Y-2.715
X4.0777Y-2.815
X4.0777Y-2.915
X4.0777Y-3.015
X4.0777Y-3.115
X4.0777Y-3.215
X4.0777Y-3.315
X4.0777Y-3.415
X4.0777Y-3.515
X4.0777Y-3.615
X4.0777Y-3.715
X4.0777Y-3.815
X4.0777Y-3.915
X4.0777Y-4.015
X4.0777Y-4.115
X5.0777Y-2.315
X5.0777Y-2.415
X5.0777Y-2.515
X5.0777Y-2.615
X5.0777Y-2.715
X5.0777Y-2.815
X5.0777Y-2.915
X5.0777Y-3.015
X5.0777Y-3.115
X5.0777Y-3.215
X5.0777Y-3.315
X5.0777Y-3.415
X5.0777Y-3.515
X5.0777Y-3.615
X5.0777Y-3.715
X5.0777Y-3.815
X5.0777Y-3.915
X5.0777Y-4.015
X5.0777Y-4.115
T6
X5.2657Y-2.0768
X5.2657Y-2.2539
X5.5217Y-2.0768
X5.5217Y-2.2539
X5.6594Y-2.0768
X5.6594Y-2.2539
X5.9154Y-2.0768
X5.9154Y-2.2539
X6.0531Y-2.0768
X6.0531Y-2.2539
X6.178Y-2.5197
X6.178Y-2.7756
X6.178Y-3.0315
X6.278Y-2.5197
X6.278Y-2.7756
X6.278Y-3.0315
X6.3091Y-2.0768
X6.3091Y-2.2539
X6.378Y-2.5197
X6.378Y-2.7756
X6.378Y-3.0315
X6.5945Y-2.3197
X6.5945Y-2.7197
X6.6142Y-3.7795
X6.6142Y-3.8795
X6.6142Y-3.9795
T7
X4.3504Y-4.2953
X4.3504Y-4.4843
X6.5945Y-2.8583
X6.5945Y-3.0472
M30
